<svg width="37" height="39" viewBox="0 0 37 39" fill="none" xmlns="http://www.w3.org/2000/svg">
<path d="M35.5963 18.6457C36.2365 19.0353 36.2365 19.9647 35.5963 20.3543L10.7699 35.4626C10.1035 35.8681 9.25 35.3884 9.25 34.6083L9.25 4.39168C9.25 3.61158 10.1035 3.13189 10.7699 3.53743L35.5963 18.6457Z" fill="#2A1E5C"/>
<path d="M18.9216 27.1455H21.7647L22.902 29.7818L17.7843 31.3636L14.9412 34L8.11765 29.7818L6.41176 22.4L3 17.1273L4.70588 12.3818L8.11765 10.8L10.3922 12.3818V10.8L14.9412 9.21818L16.6471 10.8V7.63636L20.0588 6.58182L21.7647 7.63636V6.58182L24.0392 5L26.8824 6.58182L32 18.7091L29.7255 20.2909H28.0196V22.4L25.7451 23.4545H24.0392L22.902 26.0909L18.9216 27.1455Z" fill="white"/>
<path d="M18.9216 27.1455H21.7647L22.902 29.7818L17.7843 31.3636L14.9412 34L8.11765 29.7818L6.41176 22.4M18.9216 27.1455L22.902 26.0909L24.0392 23.4545M18.9216 27.1455L12.098 17.1273M18.9216 27.1455L17.7843 28.7273L14.9412 29.7818H12.098L6.41176 22.4M6.41176 22.4L3 17.1273L4.70588 12.3818L8.11765 10.8L10.3922 12.3818V10.8L14.9412 9.21818L16.6471 10.8V7.63636L20.0588 6.58182L21.7647 7.63636V6.58182L24.0392 5L26.8824 6.58182L32 18.7091L29.7255 20.2909H28.0196M28.0196 20.2909L24.0392 13.9636M28.0196 20.2909V22.4L25.7451 23.4545H24.0392M24.0392 23.4545L18.9216 15.5455" stroke="black"/>
</svg>
